<svg t="1569303244194" class="icon" viewBox="0 0 1024 1024" version="1.1" xmlns="http://www.w3.org/2000/svg" p-id="2120" width="200" height="200"><path d="M558.545455 139.636364a372.503273 372.503273 0 0 0-354.583273 258.373818C192.418909 433.943273 0 472.250182 0 512c0 42.402909 193.256727 83.176727 206.336 121.157818A372.363636 372.363636 0 1 0 558.545455 139.636364z m0 651.636363a279.412364 279.412364 0 0 1-264.192-188.369454c-14.754909-42.961455-50.455273-66.932364-97.885091-88.529455 47.010909-20.805818 82.199273-44.544 96.069818-87.877818A278.528 278.528 0 0 1 558.545455 232.727273c154.018909 0 279.272727 125.300364 279.272727 279.272727 0 154.018909-125.253818 279.272727-279.272727 279.272727z m0-372.363636a93.090909 93.090909 0 1 0 0.046545 186.228364A93.090909 93.090909 0 0 0 558.545455 418.909091z" p-id="2121" fill="#d4237a"></path></svg>